Title                            : Cowboys & Aliens
Year                             : 2011
Genre                            : Action | Sci-Fi | Thriller
iMDB URL                         : http://www.imdb.com/title/tt0409847/

Complete name                    : Cowboys.and.Aliens.2011.BRRIP.720P.H264-ZEKTORM.mp4
Format                           : MPEG-4
Format profile                   : Base Media
Codec ID                         : isom
File size                        : 3.67 GiB
Duration                         : 2h 15mn (EXTENDED)
Overall bit rate                 : 3885 Kbps
Subtitles                        : English (Format: srt)
Video
ID                               : 1
Format                           : AVC
Format/Info                      : Advanced Video Codec
Format profile                   : High@L4.1
Format settings, CABAC           : Yes
Format settings, ReFrames        : 5 frames
Codec ID                         : avc1
Codec ID/Info                    : Advanced Video Coding
Duration                         : 2h 15mn
Bit rate mode                    : Variable
Bit rate                         : 3438 Kbps
Width                            : 1280 pixels
Height                           : 528 pixels
Display aspect ratio             : 2.424
Frame rate mode                  : Constant
Frame rate                       : 23.976 fps
Resolution                       : 24 bits
Colorimetry                      : 4:2:0
Scan type                        : Progressive
Bits/(Pixel*Frame)               : 0.212
Stream size                      : 3.25 GiB (89%)
Title                            : Video
Writing library                  : x264

Audio
ID                               : 2
Format                           : AAC
Format/Info                      : Advanced Audio Codec
Format version                   : Version 4
Format profile                   : LC
Format settings, SBR             : No
Codec ID                         : 40
Duration                         : 2h 15mn
Bit rate mode                    : Variable
Bit rate                         : 443 Kbps
Maximum bit rate                 : 554 Kbps
Channel(s)                       : 6 channels
Channel positions                : Front: L C R, Rear: L R, LFE
Sampling rate                    : 48.0 KHz
Resolution                       : 16 bits
Stream size                      : 428 MiB (11%)
Language                         : English


Screenshots:

[img]http://img27.imageshack.us/img27/9721/snapca1.png[/img]

[img]http://img843.imageshack.us/img843/1712/snapca2.png[/img]

[img]http://img593.imageshack.us/img593/6127/snapca3.png[/img]

[img]http://img51.imageshack.us/img51/9913/snapca4.png[/img]
